<?xml version="1.0" standalone="no"?><!DOCTYPE svg PUBLIC "-//W3C//DTD SVG 1.1//EN" "http://www.w3.org/Graphics/SVG/1.1/DTD/svg11.dtd"><svg t="1600419719126" class="icon" viewBox="0 0 4556 1024" version="1.1" xmlns="http://www.w3.org/2000/svg" p-id="7120" xmlns:xlink="http://www.w3.org/1999/xlink" width="889.84375" height="200"><defs><style type="text/css"></style></defs><path d="M1664 0c14.1312 0 25.6 6.9632 25.6 15.5136v992.9728c0 8.5504-11.4688 15.5136-25.6 15.5136s-25.6-6.9632-25.6-15.5136V15.5136c0-8.5504 11.4688-15.5136 25.6-15.5136z m-409.6 102.4c14.1312 0 25.6 6.8608 25.6 15.3088v839.7824c0 8.448-11.4688 15.3088-25.6 15.3088s-25.6-6.8608-25.6-15.3088V117.7088c0-8.448 11.4688-15.3088 25.6-15.3088z m204.8 0c14.1312 0 25.6 6.8608 25.6 15.3088v839.7824c0 8.448-11.4688 15.3088-25.6 15.3088s-25.6-6.8608-25.6-15.3088V117.7088c0-8.448 11.4688-15.3088 25.6-15.3088z m819.2 0c14.1312 0 25.6 6.912 25.6 15.36v788.48c0 8.448-11.4688 15.36-25.6 15.36s-25.6-6.912-25.6-15.36V117.76c0-8.448 11.4688-15.36 25.6-15.36z m204.8 0c14.1312 0 25.6 6.912 25.6 15.36v788.48c0 8.448-11.4688 15.36-25.6 15.36s-25.6-6.912-25.6-15.36V117.76c0-8.448 11.4688-15.36 25.6-15.36z m1024 0c14.1312 0 25.6 6.912 25.6 15.36v788.48c0 8.448-11.4688 15.36-25.6 15.36s-25.6-6.912-25.6-15.36V117.76c0-8.448 11.4688-15.36 25.6-15.36z m-2457.6 102.4c14.1312 0 25.6 7.0656 25.6 15.7696v634.0608c0 8.704-11.4688 15.7696-25.6 15.7696s-25.6-7.0144-25.6-15.7696V220.5696c0-8.704 11.4688-15.7696 25.6-15.7696z m1638.4 0c14.1312 0 25.6 7.168 25.6 15.9232V803.328c0 8.8064-11.4688 15.9232-25.6 15.9232s-25.6-7.168-25.6-15.9232V220.672c0-8.8064 11.4688-15.9232 25.6-15.9232z m-614.4 51.2c14.1312 0 25.6 6.8608 25.6 15.36v532.48c0 8.4992-11.4688 15.36-25.6 15.36s-25.6-6.8608-25.6-15.36V271.36c0-8.4992 11.4688-15.36 25.6-15.36z m-204.8 0c14.1312 0 25.6 6.8608 25.6 15.36v532.48c0 8.4992-11.4688 15.36-25.6 15.36s-25.6-6.8608-25.6-15.36V271.36c0-8.4992 11.4688-15.36 25.6-15.36z m1433.6-51.2c14.1312 0 25.6 7.168 25.6 15.9232V803.328c0 8.8064-11.4688 15.9232-25.6 15.9232s-25.6-7.168-25.6-15.9232V220.672c0-8.8064 11.4688-15.9232 25.6-15.9232z m614.4 0c14.1312 0 25.6 7.168 25.6 15.9232V803.328c0 8.8064-11.4688 15.9232-25.6 15.9232s-25.6-7.168-25.6-15.9232V220.672c0-8.8064 11.4688-15.9232 25.6-15.9232z m-3481.6 51.2c14.1312 0 25.6 6.912 25.6 15.4624v481.0752c0 8.5504-11.4688 15.4624-25.6 15.4624s-25.6-6.912-25.6-15.4624V271.4624C409.6 262.912 421.0688 256 435.2 256z m204.8 51.2c14.1312 0 25.6 7.0144 25.6 15.6672v429.4656c0 8.704-11.4688 15.6672-25.6 15.6672s-25.6-6.9632-25.6-15.6672V322.8672c0-8.6528 11.4688-15.6672 25.6-15.6672z m204.8 0c14.1312 0 25.6 7.0144 25.6 15.6672v429.4656c0 8.704-11.4688 15.6672-25.6 15.6672s-25.6-6.9632-25.6-15.6672V322.8672c0-8.6528 11.4688-15.6672 25.6-15.6672z m2252.8-102.4c14.1312 0 25.6 7.168 25.6 15.9232V752.128c0 8.8064-11.4688 15.9232-25.6 15.9232s-25.6-7.168-25.6-15.9232V220.672c0-8.8064 11.4688-15.9232 25.6-15.9232z m614.4 51.2c14.1312 0 25.6 6.912 25.6 15.4624v481.0752c0 8.5504-11.4688 15.4624-25.6 15.4624s-25.6-6.912-25.6-15.4624V271.4624c0-8.5504 11.4688-15.4624 25.6-15.4624z m-819.2 51.2c14.1312 0 25.6 7.168 25.6 15.9232v377.7536c0 8.8064-11.4688 15.9232-25.6 15.9232s-25.6-7.168-25.6-15.9232V323.072c0-8.8064 11.4688-15.9232 25.6-15.9232z m1228.8 0c14.1312 0 25.6 7.168 25.6 15.872v377.856c0 8.704-11.4688 15.872-25.6 15.872s-25.6-7.168-25.6-15.872V323.072c0-8.704 11.4688-15.872 25.6-15.872z m-3891.2 51.2c14.1312 0 25.6 7.4752 25.6 16.64v273.92c0 9.216-11.4688 16.64-25.6 16.64s-25.6-7.4752-25.6-16.64v-273.92c0-9.216 11.4688-16.64 25.6-16.64z m4096 0c14.1312 0 25.6 7.4752 25.6 16.64v273.92c0 9.216-11.4688 16.64-25.6 16.64s-25.6-7.4752-25.6-16.64v-273.92c0-9.216 11.4688-16.64 25.6-16.64z m204.8 51.2c14.1312 0 25.6 7.0656 25.6 15.7696v173.2608c0 8.704-11.4688 15.7696-25.6 15.7696s-25.6-7.0656-25.6-15.7696V425.3696c0-8.704 11.4688-15.7696 25.6-15.7696zM25.6 409.6c14.1312 0 25.6 7.0656 25.6 15.7696v173.2608c0 8.704-11.4688 15.7696-25.6 15.7696s-25.6-7.0656-25.6-15.7696V425.3696C0 416.6656 11.4688 409.6 25.6 409.6z" fill="#808A87" p-id="7121"></path></svg>